<?xml version="1.0" encoding="utf-8" standalone="no"?>
<!DOCTYPE svg PUBLIC "-//W3C//DTD SVG 1.1//EN"
  "http://www.w3.org/Graphics/SVG/1.1/DTD/svg11.dtd">
<svg xmlns:xlink="http://www.w3.org/1999/xlink" width="720pt" height="298.8pt" viewBox="0 0 720 298.8" xmlns="http://www.w3.org/2000/svg" version="1.1">
 <metadata>
  <rdf:RDF xmlns:dc="http://purl.org/dc/elements/1.1/" xmlns:cc="http://creativecommons.org/ns#" xmlns:rdf="http://www.w3.org/1999/02/22-rdf-syntax-ns#">
   <cc:Work>
    <dc:type rdf:resource="http://purl.org/dc/dcmitype/StillImage"/>
    <dc:date>2022-12-31T11:55:57.108867</dc:date>
    <dc:format>image/svg+xml</dc:format>
    <dc:creator>
     <cc:Agent>
      <dc:title>Matplotlib v3.6.2, https://matplotlib.org/</dc:title>
     </cc:Agent>
    </dc:creator>
   </cc:Work>
  </rdf:RDF>
 </metadata>
 <defs>
  <style type="text/css">*{stroke-linejoin: round; stroke-linecap: butt}</style>
 </defs>
 <g id="figure_1">
  <g id="patch_1">
   <path d="M 0 298.8 
L 720 298.8 
L 720 0 
L 0 0 
z
" style="fill: #ffffff"/>
  </g>
  <g id="axes_1">
   <g id="patch_2">
    <path d="M 90 140.436 
L 648 140.436 
L 648 35.856 
L 90 35.856 
z
" style="fill: #ffffff"/>
   </g>
   <g id="matplotlib.axis_1">
    <g id="xtick_1">
     <g id="line2d_1">
      <path d="M 166.951075 140.436 
L 166.951075 35.856 
" clip-path="url(#p695e67db9f)" style="fill: none; stroke: #b0b0b0; stroke-width: 0.8; stroke-linecap: square"/>
     </g>
     <g id="line2d_2">
      <defs>
       <path id="m4b93ab3b64" d="M 0 0 
L 0 3.5 
" style="stroke: #000000; stroke-width: 0.8"/>
      </defs>
      <g>
       <use xlink:href="#m4b93ab3b64" x="166.951075" y="140.436" style="stroke: #000000; stroke-width: 0.8"/>
      </g>
     </g>
     <g id="text_1">
      <!-- $\mathdefault{10^{0}}$ -->
      <g transform="translate(158.151075 155.034437) scale(0.1 -0.1)">
       <defs>
        <path id="DejaVuSans-31" d="M 794 531 
L 1825 531 
L 1825 4091 
L 703 3866 
L 703 4441 
L 1819 4666 
L 2450 4666 
L 2450 531 
L 3481 531 
L 3481 0 
L 794 0 
L 794 531 
z
" transform="scale(0.015625)"/>
        <path id="DejaVuSans-30" d="M 2034 4250 
Q 1547 4250 1301 3770 
Q 1056 3291 1056 2328 
Q 1056 1369 1301 889 
Q 1547 409 2034 409 
Q 2525 409 2770 889 
Q 3016 1369 3016 2328 
Q 3016 3291 2770 3770 
Q 2525 4250 2034 4250 
z
M 2034 4750 
Q 2819 4750 3233 4129 
Q 3647 3509 3647 2328 
Q 3647 1150 3233 529 
Q 2819 -91 2034 -91 
Q 1250 -91 836 529 
Q 422 1150 422 2328 
Q 422 3509 836 4129 
Q 1250 4750 2034 4750 
z
" transform="scale(0.015625)"/>
       </defs>
       <use xlink:href="#DejaVuSans-31" transform="translate(0 0.765625)"/>
       <use xlink:href="#DejaVuSans-30" transform="translate(63.623047 0.765625)"/>
       <use xlink:href="#DejaVuSans-30" transform="translate(128.203125 39.046875) scale(0.7)"/>
      </g>
     </g>
    </g>
    <g id="xtick_2">
     <g id="line2d_3">
      <path d="M 358.718932 140.436 
L 358.718932 35.856 
" clip-path="url(#p695e67db9f)" style="fill: none; stroke: #b0b0b0; stroke-width: 0.8; stroke-linecap: square"/>
     </g>
     <g id="line2d_4">
      <g>
       <use xlink:href="#m4b93ab3b64" x="358.718932" y="140.436" style="stroke: #000000; stroke-width: 0.8"/>
      </g>
     </g>
     <g id="text_2">
      <!-- $\mathdefault{10^{1}}$ -->
      <g transform="translate(349.918932 155.034437) scale(0.1 -0.1)">
       <use xlink:href="#DejaVuSans-31" transform="translate(0 0.684375)"/>
       <use xlink:href="#DejaVuSans-30" transform="translate(63.623047 0.684375)"/>
       <use xlink:href="#DejaVuSans-31" transform="translate(128.203125 38.965625) scale(0.7)"/>
      </g>
     </g>
    </g>
    <g id="xtick_3">
     <g id="line2d_5">
      <path d="M 550.486789 140.436 
L 550.486789 35.856 
" clip-path="url(#p695e67db9f)" style="fill: none; stroke: #b0b0b0; stroke-width: 0.8; stroke-linecap: square"/>
     </g>
     <g id="line2d_6">
      <g>
       <use xlink:href="#m4b93ab3b64" x="550.486789" y="140.436" style="stroke: #000000; stroke-width: 0.8"/>
      </g>
     </g>
     <g id="text_3">
      <!-- $\mathdefault{10^{2}}$ -->
      <g transform="translate(541.686789 155.034437) scale(0.1 -0.1)">
       <defs>
        <path id="DejaVuSans-32" d="M 1228 531 
L 3431 531 
L 3431 0 
L 469 0 
L 469 531 
Q 828 903 1448 1529 
Q 2069 2156 2228 2338 
Q 2531 2678 2651 2914 
Q 2772 3150 2772 3378 
Q 2772 3750 2511 3984 
Q 2250 4219 1831 4219 
Q 1534 4219 1204 4116 
Q 875 4013 500 3803 
L 500 4441 
Q 881 4594 1212 4672 
Q 1544 4750 1819 4750 
Q 2544 4750 2975 4387 
Q 3406 4025 3406 3419 
Q 3406 3131 3298 2873 
Q 3191 2616 2906 2266 
Q 2828 2175 2409 1742 
Q 1991 1309 1228 531 
z
" transform="scale(0.015625)"/>
       </defs>
       <use xlink:href="#DejaVuSans-31" transform="translate(0 0.765625)"/>
       <use xlink:href="#DejaVuSans-30" transform="translate(63.623047 0.765625)"/>
       <use xlink:href="#DejaVuSans-32" transform="translate(128.203125 39.046875) scale(0.7)"/>
      </g>
     </g>
    </g>
    <g id="xtick_4">
     <g id="line2d_7">
      <defs>
       <path id="m41809ce5e6" d="M 0 0 
L 0 2 
" style="stroke: #000000; stroke-width: 0.6"/>
      </defs>
      <g>
       <use xlink:href="#m41809ce5e6" x="90.638972" y="140.436" style="stroke: #000000; stroke-width: 0.6"/>
      </g>
     </g>
    </g>
    <g id="xtick_5">
     <g id="line2d_8">
      <g>
       <use xlink:href="#m41809ce5e6" x="109.223198" y="140.436" style="stroke: #000000; stroke-width: 0.6"/>
      </g>
     </g>
    </g>
    <g id="xtick_6">
     <g id="line2d_9">
      <g>
       <use xlink:href="#m41809ce5e6" x="124.407616" y="140.436" style="stroke: #000000; stroke-width: 0.6"/>
      </g>
     </g>
    </g>
    <g id="xtick_7">
     <g id="line2d_10">
      <g>
       <use xlink:href="#m41809ce5e6" x="137.245858" y="140.436" style="stroke: #000000; stroke-width: 0.6"/>
      </g>
     </g>
    </g>
    <g id="xtick_8">
     <g id="line2d_11">
      <g>
       <use xlink:href="#m41809ce5e6" x="148.36685" y="140.436" style="stroke: #000000; stroke-width: 0.6"/>
      </g>
     </g>
    </g>
    <g id="xtick_9">
     <g id="line2d_12">
      <g>
       <use xlink:href="#m41809ce5e6" x="158.176259" y="140.436" style="stroke: #000000; stroke-width: 0.6"/>
      </g>
     </g>
    </g>
    <g id="xtick_10">
     <g id="line2d_13">
      <g>
       <use xlink:href="#m41809ce5e6" x="224.678952" y="140.436" style="stroke: #000000; stroke-width: 0.6"/>
      </g>
     </g>
    </g>
    <g id="xtick_11">
     <g id="line2d_14">
      <g>
       <use xlink:href="#m41809ce5e6" x="258.447596" y="140.436" style="stroke: #000000; stroke-width: 0.6"/>
      </g>
     </g>
    </g>
    <g id="xtick_12">
     <g id="line2d_15">
      <g>
       <use xlink:href="#m41809ce5e6" x="282.406829" y="140.436" style="stroke: #000000; stroke-width: 0.6"/>
      </g>
     </g>
    </g>
    <g id="xtick_13">
     <g id="line2d_16">
      <g>
       <use xlink:href="#m41809ce5e6" x="300.991055" y="140.436" style="stroke: #000000; stroke-width: 0.6"/>
      </g>
     </g>
    </g>
    <g id="xtick_14">
     <g id="line2d_17">
      <g>
       <use xlink:href="#m41809ce5e6" x="316.175473" y="140.436" style="stroke: #000000; stroke-width: 0.6"/>
      </g>
     </g>
    </g>
    <g id="xtick_15">
     <g id="line2d_18">
      <g>
       <use xlink:href="#m41809ce5e6" x="329.013715" y="140.436" style="stroke: #000000; stroke-width: 0.6"/>
      </g>
     </g>
    </g>
    <g id="xtick_16">
     <g id="line2d_19">
      <g>
       <use xlink:href="#m41809ce5e6" x="340.134707" y="140.436" style="stroke: #000000; stroke-width: 0.6"/>
      </g>
     </g>
    </g>
    <g id="xtick_17">
     <g id="line2d_20">
      <g>
       <use xlink:href="#m41809ce5e6" x="349.944116" y="140.436" style="stroke: #000000; stroke-width: 0.6"/>
      </g>
     </g>
    </g>
    <g id="xtick_18">
     <g id="line2d_21">
      <g>
       <use xlink:href="#m41809ce5e6" x="416.446809" y="140.436" style="stroke: #000000; stroke-width: 0.6"/>
      </g>
     </g>
    </g>
    <g id="xtick_19">
     <g id="line2d_22">
      <g>
       <use xlink:href="#m41809ce5e6" x="450.215453" y="140.436" style="stroke: #000000; stroke-width: 0.6"/>
      </g>
     </g>
    </g>
    <g id="xtick_20">
     <g id="line2d_23">
      <g>
       <use xlink:href="#m41809ce5e6" x="474.174687" y="140.436" style="stroke: #000000; stroke-width: 0.6"/>
      </g>
     </g>
    </g>
    <g id="xtick_21">
     <g id="line2d_24">
      <g>
       <use xlink:href="#m41809ce5e6" x="492.758912" y="140.436" style="stroke: #000000; stroke-width: 0.6"/>
      </g>
     </g>
    </g>
    <g id="xtick_22">
     <g id="line2d_25">
      <g>
       <use xlink:href="#m41809ce5e6" x="507.94333" y="140.436" style="stroke: #000000; stroke-width: 0.6"/>
      </g>
     </g>
    </g>
    <g id="xtick_23">
     <g id="line2d_26">
      <g>
       <use xlink:href="#m41809ce5e6" x="520.781572" y="140.436" style="stroke: #000000; stroke-width: 0.6"/>
      </g>
     </g>
    </g>
    <g id="xtick_24">
     <g id="line2d_27">
      <g>
       <use xlink:href="#m41809ce5e6" x="531.902564" y="140.436" style="stroke: #000000; stroke-width: 0.6"/>
      </g>
     </g>
    </g>
    <g id="xtick_25">
     <g id="line2d_28">
      <g>
       <use xlink:href="#m41809ce5e6" x="541.711973" y="140.436" style="stroke: #000000; stroke-width: 0.6"/>
      </g>
     </g>
    </g>
    <g id="xtick_26">
     <g id="line2d_29">
      <g>
       <use xlink:href="#m41809ce5e6" x="608.214667" y="140.436" style="stroke: #000000; stroke-width: 0.6"/>
      </g>
     </g>
    </g>
    <g id="xtick_27">
     <g id="line2d_30">
      <g>
       <use xlink:href="#m41809ce5e6" x="641.98331" y="140.436" style="stroke: #000000; stroke-width: 0.6"/>
      </g>
     </g>
    </g>
    <g id="text_4">
     <!-- JSON size (MB) -->
     <g transform="translate(332.155469 168.712562) scale(0.1 -0.1)">
      <defs>
       <path id="DejaVuSans-4a" d="M 628 4666 
L 1259 4666 
L 1259 325 
Q 1259 -519 939 -900 
Q 619 -1281 -91 -1281 
L -331 -1281 
L -331 -750 
L -134 -750 
Q 284 -750 456 -515 
Q 628 -281 628 325 
L 628 4666 
z
" transform="scale(0.015625)"/>
       <path id="DejaVuSans-53" d="M 3425 4513 
L 3425 3897 
Q 3066 4069 2747 4153 
Q 2428 4238 2131 4238 
Q 1616 4238 1336 4038 
Q 1056 3838 1056 3469 
Q 1056 3159 1242 3001 
Q 1428 2844 1947 2747 
L 2328 2669 
Q 3034 2534 3370 2195 
Q 3706 1856 3706 1288 
Q 3706 609 3251 259 
Q 2797 -91 1919 -91 
Q 1588 -91 1214 -16 
Q 841 59 441 206 
L 441 856 
Q 825 641 1194 531 
Q 1563 422 1919 422 
Q 2459 422 2753 634 
Q 3047 847 3047 1241 
Q 3047 1584 2836 1778 
Q 2625 1972 2144 2069 
L 1759 2144 
Q 1053 2284 737 2584 
Q 422 2884 422 3419 
Q 422 4038 858 4394 
Q 1294 4750 2059 4750 
Q 2388 4750 2728 4690 
Q 3069 4631 3425 4513 
z
" transform="scale(0.015625)"/>
       <path id="DejaVuSans-4f" d="M 2522 4238 
Q 1834 4238 1429 3725 
Q 1025 3213 1025 2328 
Q 1025 1447 1429 934 
Q 1834 422 2522 422 
Q 3209 422 3611 934 
Q 4013 1447 4013 2328 
Q 4013 3213 3611 3725 
Q 3209 4238 2522 4238 
z
M 2522 4750 
Q 3503 4750 4090 4092 
Q 4678 3434 4678 2328 
Q 4678 1225 4090 567 
Q 3503 -91 2522 -91 
Q 1538 -91 948 565 
Q 359 1222 359 2328 
Q 359 3434 948 4092 
Q 1538 4750 2522 4750 
z
" transform="scale(0.015625)"/>
       <path id="DejaVuSans-4e" d="M 628 4666 
L 1478 4666 
L 3547 763 
L 3547 4666 
L 4159 4666 
L 4159 0 
L 3309 0 
L 1241 3903 
L 1241 0 
L 628 0 
L 628 4666 
z
" transform="scale(0.015625)"/>
       <path id="DejaVuSans-20" transform="scale(0.015625)"/>
       <path id="DejaVuSans-73" d="M 2834 3397 
L 2834 2853 
Q 2591 2978 2328 3040 
Q 2066 3103 1784 3103 
Q 1356 3103 1142 2972 
Q 928 2841 928 2578 
Q 928 2378 1081 2264 
Q 1234 2150 1697 2047 
L 1894 2003 
Q 2506 1872 2764 1633 
Q 3022 1394 3022 966 
Q 3022 478 2636 193 
Q 2250 -91 1575 -91 
Q 1294 -91 989 -36 
Q 684 19 347 128 
L 347 722 
Q 666 556 975 473 
Q 1284 391 1588 391 
Q 1994 391 2212 530 
Q 2431 669 2431 922 
Q 2431 1156 2273 1281 
Q 2116 1406 1581 1522 
L 1381 1569 
Q 847 1681 609 1914 
Q 372 2147 372 2553 
Q 372 3047 722 3315 
Q 1072 3584 1716 3584 
Q 2034 3584 2315 3537 
Q 2597 3491 2834 3397 
z
" transform="scale(0.015625)"/>
       <path id="DejaVuSans-69" d="M 603 3500 
L 1178 3500 
L 1178 0 
L 603 0 
L 603 3500 
z
M 603 4863 
L 1178 4863 
L 1178 4134 
L 603 4134 
L 603 4863 
z
" transform="scale(0.015625)"/>
       <path id="DejaVuSans-7a" d="M 353 3500 
L 3084 3500 
L 3084 2975 
L 922 459 
L 3084 459 
L 3084 0 
L 275 0 
L 275 525 
L 2438 3041 
L 353 3041 
L 353 3500 
z
" transform="scale(0.015625)"/>
       <path id="DejaVuSans-65" d="M 3597 1894 
L 3597 1613 
L 953 1613 
Q 991 1019 1311 708 
Q 1631 397 2203 397 
Q 2534 397 2845 478 
Q 3156 559 3463 722 
L 3463 178 
Q 3153 47 2828 -22 
Q 2503 -91 2169 -91 
Q 1331 -91 842 396 
Q 353 884 353 1716 
Q 353 2575 817 3079 
Q 1281 3584 2069 3584 
Q 2775 3584 3186 3129 
Q 3597 2675 3597 1894 
z
M 3022 2063 
Q 3016 2534 2758 2815 
Q 2500 3097 2075 3097 
Q 1594 3097 1305 2825 
Q 1016 2553 972 2059 
L 3022 2063 
z
" transform="scale(0.015625)"/>
       <path id="DejaVuSans-28" d="M 1984 4856 
Q 1566 4138 1362 3434 
Q 1159 2731 1159 2009 
Q 1159 1288 1364 580 
Q 1569 -128 1984 -844 
L 1484 -844 
Q 1016 -109 783 600 
Q 550 1309 550 2009 
Q 550 2706 781 3412 
Q 1013 4119 1484 4856 
L 1984 4856 
z
" transform="scale(0.015625)"/>
       <path id="DejaVuSans-4d" d="M 628 4666 
L 1569 4666 
L 2759 1491 
L 3956 4666 
L 4897 4666 
L 4897 0 
L 4281 0 
L 4281 4097 
L 3078 897 
L 2444 897 
L 1241 4097 
L 1241 0 
L 628 0 
L 628 4666 
z
" transform="scale(0.015625)"/>
       <path id="DejaVuSans-42" d="M 1259 2228 
L 1259 519 
L 2272 519 
Q 2781 519 3026 730 
Q 3272 941 3272 1375 
Q 3272 1813 3026 2020 
Q 2781 2228 2272 2228 
L 1259 2228 
z
M 1259 4147 
L 1259 2741 
L 2194 2741 
Q 2656 2741 2882 2914 
Q 3109 3088 3109 3444 
Q 3109 3797 2882 3972 
Q 2656 4147 2194 4147 
L 1259 4147 
z
M 628 4666 
L 2241 4666 
Q 2963 4666 3353 4366 
Q 3744 4066 3744 3513 
Q 3744 3084 3544 2831 
Q 3344 2578 2956 2516 
Q 3422 2416 3680 2098 
Q 3938 1781 3938 1306 
Q 3938 681 3513 340 
Q 3088 0 2303 0 
L 628 0 
L 628 4666 
z
" transform="scale(0.015625)"/>
       <path id="DejaVuSans-29" d="M 513 4856 
L 1013 4856 
Q 1481 4119 1714 3412 
Q 1947 2706 1947 2009 
Q 1947 1309 1714 600 
Q 1481 -109 1013 -844 
L 513 -844 
Q 928 -128 1133 580 
Q 1338 1288 1338 2009 
Q 1338 2731 1133 3434 
Q 928 4138 513 4856 
z
" transform="scale(0.015625)"/>
      </defs>
      <use xlink:href="#DejaVuSans-4a"/>
      <use xlink:href="#DejaVuSans-53" x="29.492188"/>
      <use xlink:href="#DejaVuSans-4f" x="92.96875"/>
      <use xlink:href="#DejaVuSans-4e" x="171.679688"/>
      <use xlink:href="#DejaVuSans-20" x="246.484375"/>
      <use xlink:href="#DejaVuSans-73" x="278.271484"/>
      <use xlink:href="#DejaVuSans-69" x="330.371094"/>
      <use xlink:href="#DejaVuSans-7a" x="358.154297"/>
      <use xlink:href="#DejaVuSans-65" x="410.644531"/>
      <use xlink:href="#DejaVuSans-20" x="472.167969"/>
      <use xlink:href="#DejaVuSans-28" x="503.955078"/>
      <use xlink:href="#DejaVuSans-4d" x="542.96875"/>
      <use xlink:href="#DejaVuSans-42" x="629.248047"/>
      <use xlink:href="#DejaVuSans-29" x="697.851562"/>
     </g>
    </g>
   </g>
   <g id="matplotlib.axis_2">
    <g id="ytick_1">
     <g id="line2d_31">
      <path d="M 90 125.748969 
L 648 125.748969 
" clip-path="url(#p695e67db9f)" style="fill: none; stroke: #b0b0b0; stroke-width: 0.8; stroke-linecap: square"/>
     </g>
     <g id="line2d_32">
      <defs>
       <path id="mdd139832e3" d="M 0 0 
L -3.5 0 
" style="stroke: #000000; stroke-width: 0.8"/>
      </defs>
      <g>
       <use xlink:href="#mdd139832e3" x="90" y="125.748969" style="stroke: #000000; stroke-width: 0.8"/>
      </g>
     </g>
     <g id="text_5">
      <!-- $\mathdefault{10^{-3}}$ -->
      <g transform="translate(59.5 129.548187) scale(0.1 -0.1)">
       <defs>
        <path id="DejaVuSans-2212" d="M 678 2272 
L 4684 2272 
L 4684 1741 
L 678 1741 
L 678 2272 
z
" transform="scale(0.015625)"/>
        <path id="DejaVuSans-33" d="M 2597 2516 
Q 3050 2419 3304 2112 
Q 3559 1806 3559 1356 
Q 3559 666 3084 287 
Q 2609 -91 1734 -91 
Q 1441 -91 1130 -33 
Q 819 25 488 141 
L 488 750 
Q 750 597 1062 519 
Q 1375 441 1716 441 
Q 2309 441 2620 675 
Q 2931 909 2931 1356 
Q 2931 1769 2642 2001 
Q 2353 2234 1838 2234 
L 1294 2234 
L 1294 2753 
L 1863 2753 
Q 2328 2753 2575 2939 
Q 2822 3125 2822 3475 
Q 2822 3834 2567 4026 
Q 2313 4219 1838 4219 
Q 1578 4219 1281 4162 
Q 984 4106 628 3988 
L 628 4550 
Q 988 4650 1302 4700 
Q 1616 4750 1894 4750 
Q 2613 4750 3031 4423 
Q 3450 4097 3450 3541 
Q 3450 3153 3228 2886 
Q 3006 2619 2597 2516 
z
" transform="scale(0.015625)"/>
       </defs>
       <use xlink:href="#DejaVuSans-31" transform="translate(0 0.765625)"/>
       <use xlink:href="#DejaVuSans-30" transform="translate(63.623047 0.765625)"/>
       <use xlink:href="#DejaVuSans-2212" transform="translate(128.203125 39.046875) scale(0.7)"/>
       <use xlink:href="#DejaVuSans-33" transform="translate(186.855469 39.046875) scale(0.7)"/>
      </g>
     </g>
    </g>
    <g id="ytick_2">
     <g id="line2d_33">
      <path d="M 90 100.919083 
L 648 100.919083 
" clip-path="url(#p695e67db9f)" style="fill: none; stroke: #b0b0b0; stroke-width: 0.8; stroke-linecap: square"/>
     </g>
     <g id="line2d_34">
      <g>
       <use xlink:href="#mdd139832e3" x="90" y="100.919083" style="stroke: #000000; stroke-width: 0.8"/>
      </g>
     </g>
     <g id="text_6">
      <!-- $\mathdefault{10^{-2}}$ -->
      <g transform="translate(59.5 104.718301) scale(0.1 -0.1)">
       <use xlink:href="#DejaVuSans-31" transform="translate(0 0.765625)"/>
       <use xlink:href="#DejaVuSans-30" transform="translate(63.623047 0.765625)"/>
       <use xlink:href="#DejaVuSans-2212" transform="translate(128.203125 39.046875) scale(0.7)"/>
       <use xlink:href="#DejaVuSans-32" transform="translate(186.855469 39.046875) scale(0.7)"/>
      </g>
     </g>
    </g>
    <g id="ytick_3">
     <g id="line2d_35">
      <path d="M 90 76.089197 
L 648 76.089197 
" clip-path="url(#p695e67db9f)" style="fill: none; stroke: #b0b0b0; stroke-width: 0.8; stroke-linecap: square"/>
     </g>
     <g id="line2d_36">
      <g>
       <use xlink:href="#mdd139832e3" x="90" y="76.089197" style="stroke: #000000; stroke-width: 0.8"/>
      </g>
     </g>
     <g id="text_7">
      <!-- $\mathdefault{10^{-1}}$ -->
      <g transform="translate(59.5 79.888415) scale(0.1 -0.1)">
       <use xlink:href="#DejaVuSans-31" transform="translate(0 0.684375)"/>
       <use xlink:href="#DejaVuSans-30" transform="translate(63.623047 0.684375)"/>
       <use xlink:href="#DejaVuSans-2212" transform="translate(128.203125 38.965625) scale(0.7)"/>
       <use xlink:href="#DejaVuSans-31" transform="translate(186.855469 38.965625) scale(0.7)"/>
      </g>
     </g>
    </g>
    <g id="ytick_4">
     <g id="line2d_37">
      <path d="M 90 51.259311 
L 648 51.259311 
" clip-path="url(#p695e67db9f)" style="fill: none; stroke: #b0b0b0; stroke-width: 0.8; stroke-linecap: square"/>
     </g>
     <g id="line2d_38">
      <g>
       <use xlink:href="#mdd139832e3" x="90" y="51.259311" style="stroke: #000000; stroke-width: 0.8"/>
      </g>
     </g>
     <g id="text_8">
      <!-- $\mathdefault{10^{0}}$ -->
      <g transform="translate(65.4 55.058529) scale(0.1 -0.1)">
       <use xlink:href="#DejaVuSans-31" transform="translate(0 0.765625)"/>
       <use xlink:href="#DejaVuSans-30" transform="translate(63.623047 0.765625)"/>
       <use xlink:href="#DejaVuSans-30" transform="translate(128.203125 39.046875) scale(0.7)"/>
      </g>
     </g>
    </g>
    <g id="ytick_5">
     <g id="line2d_39">
      <defs>
       <path id="m6370c32a1c" d="M 0 0 
L -2 0 
" style="stroke: #000000; stroke-width: 0.6"/>
      </defs>
      <g>
       <use xlink:href="#m6370c32a1c" x="90" y="138.731988" style="stroke: #000000; stroke-width: 0.6"/>
      </g>
     </g>
    </g>
    <g id="ytick_6">
     <g id="line2d_40">
      <g>
       <use xlink:href="#m6370c32a1c" x="90" y="135.629774" style="stroke: #000000; stroke-width: 0.6"/>
      </g>
     </g>
    </g>
    <g id="ytick_7">
     <g id="line2d_41">
      <g>
       <use xlink:href="#m6370c32a1c" x="90" y="133.223509" style="stroke: #000000; stroke-width: 0.6"/>
      </g>
     </g>
    </g>
    <g id="ytick_8">
     <g id="line2d_42">
      <g>
       <use xlink:href="#m6370c32a1c" x="90" y="131.257448" style="stroke: #000000; stroke-width: 0.6"/>
      </g>
     </g>
    </g>
    <g id="ytick_9">
     <g id="line2d_43">
      <g>
       <use xlink:href="#m6370c32a1c" x="90" y="129.595167" style="stroke: #000000; stroke-width: 0.6"/>
      </g>
     </g>
    </g>
    <g id="ytick_10">
     <g id="line2d_44">
      <g>
       <use xlink:href="#m6370c32a1c" x="90" y="128.155233" style="stroke: #000000; stroke-width: 0.6"/>
      </g>
     </g>
    </g>
    <g id="ytick_11">
     <g id="line2d_45">
      <g>
       <use xlink:href="#m6370c32a1c" x="90" y="126.885122" style="stroke: #000000; stroke-width: 0.6"/>
      </g>
     </g>
    </g>
    <g id="ytick_12">
     <g id="line2d_46">
      <g>
       <use xlink:href="#m6370c32a1c" x="90" y="118.274428" style="stroke: #000000; stroke-width: 0.6"/>
      </g>
     </g>
    </g>
    <g id="ytick_13">
     <g id="line2d_47">
      <g>
       <use xlink:href="#m6370c32a1c" x="90" y="113.902102" style="stroke: #000000; stroke-width: 0.6"/>
      </g>
     </g>
    </g>
    <g id="ytick_14">
     <g id="line2d_48">
      <g>
       <use xlink:href="#m6370c32a1c" x="90" y="110.799888" style="stroke: #000000; stroke-width: 0.6"/>
      </g>
     </g>
    </g>
    <g id="ytick_15">
     <g id="line2d_49">
      <g>
       <use xlink:href="#m6370c32a1c" x="90" y="108.393623" style="stroke: #000000; stroke-width: 0.6"/>
      </g>
     </g>
    </g>
    <g id="ytick_16">
     <g id="line2d_50">
      <g>
       <use xlink:href="#m6370c32a1c" x="90" y="106.427562" style="stroke: #000000; stroke-width: 0.6"/>
      </g>
     </g>
    </g>
    <g id="ytick_17">
     <g id="line2d_51">
      <g>
       <use xlink:href="#m6370c32a1c" x="90" y="104.765281" style="stroke: #000000; stroke-width: 0.6"/>
      </g>
     </g>
    </g>
    <g id="ytick_18">
     <g id="line2d_52">
      <g>
       <use xlink:href="#m6370c32a1c" x="90" y="103.325347" style="stroke: #000000; stroke-width: 0.6"/>
      </g>
     </g>
    </g>
    <g id="ytick_19">
     <g id="line2d_53">
      <g>
       <use xlink:href="#m6370c32a1c" x="90" y="102.055236" style="stroke: #000000; stroke-width: 0.6"/>
      </g>
     </g>
    </g>
    <g id="ytick_20">
     <g id="line2d_54">
      <g>
       <use xlink:href="#m6370c32a1c" x="90" y="93.444542" style="stroke: #000000; stroke-width: 0.6"/>
      </g>
     </g>
    </g>
    <g id="ytick_21">
     <g id="line2d_55">
      <g>
       <use xlink:href="#m6370c32a1c" x="90" y="89.072216" style="stroke: #000000; stroke-width: 0.6"/>
      </g>
     </g>
    </g>
    <g id="ytick_22">
     <g id="line2d_56">
      <g>
       <use xlink:href="#m6370c32a1c" x="90" y="85.970002" style="stroke: #000000; stroke-width: 0.6"/>
      </g>
     </g>
    </g>
    <g id="ytick_23">
     <g id="line2d_57">
      <g>
       <use xlink:href="#m6370c32a1c" x="90" y="83.563737" style="stroke: #000000; stroke-width: 0.6"/>
      </g>
     </g>
    </g>
    <g id="ytick_24">
     <g id="line2d_58">
      <g>
       <use xlink:href="#m6370c32a1c" x="90" y="81.597676" style="stroke: #000000; stroke-width: 0.6"/>
      </g>
     </g>
    </g>
    <g id="ytick_25">
     <g id="line2d_59">
      <g>
       <use xlink:href="#m6370c32a1c" x="90" y="79.935395" style="stroke: #000000; stroke-width: 0.6"/>
      </g>
     </g>
    </g>
    <g id="ytick_26">
     <g id="line2d_60">
      <g>
       <use xlink:href="#m6370c32a1c" x="90" y="78.495461" style="stroke: #000000; stroke-width: 0.6"/>
      </g>
     </g>
    </g>
    <g id="ytick_27">
     <g id="line2d_61">
      <g>
       <use xlink:href="#m6370c32a1c" x="90" y="77.22535" style="stroke: #000000; stroke-width: 0.6"/>
      </g>
     </g>
    </g>
    <g id="ytick_28">
     <g id="line2d_62">
      <g>
       <use xlink:href="#m6370c32a1c" x="90" y="68.614656" style="stroke: #000000; stroke-width: 0.6"/>
      </g>
     </g>
    </g>
    <g id="ytick_29">
     <g id="line2d_63">
      <g>
       <use xlink:href="#m6370c32a1c" x="90" y="64.24233" style="stroke: #000000; stroke-width: 0.6"/>
      </g>
     </g>
    </g>
    <g id="ytick_30">
     <g id="line2d_64">
      <g>
       <use xlink:href="#m6370c32a1c" x="90" y="61.140116" style="stroke: #000000; stroke-width: 0.6"/>
      </g>
     </g>
    </g>
    <g id="ytick_31">
     <g id="line2d_65">
      <g>
       <use xlink:href="#m6370c32a1c" x="90" y="58.733851" style="stroke: #000000; stroke-width: 0.6"/>
      </g>
     </g>
    </g>
    <g id="ytick_32">
     <g id="line2d_66">
      <g>
       <use xlink:href="#m6370c32a1c" x="90" y="56.76779" style="stroke: #000000; stroke-width: 0.6"/>
      </g>
     </g>
    </g>
    <g id="ytick_33">
     <g id="line2d_67">
      <g>
       <use xlink:href="#m6370c32a1c" x="90" y="55.105509" style="stroke: #000000; stroke-width: 0.6"/>
      </g>
     </g>
    </g>
    <g id="ytick_34">
     <g id="line2d_68">
      <g>
       <use xlink:href="#m6370c32a1c" x="90" y="53.665575" style="stroke: #000000; stroke-width: 0.6"/>
      </g>
     </g>
    </g>
    <g id="ytick_35">
     <g id="line2d_69">
      <g>
       <use xlink:href="#m6370c32a1c" x="90" y="52.395464" style="stroke: #000000; stroke-width: 0.6"/>
      </g>
     </g>
    </g>
    <g id="ytick_36">
     <g id="line2d_70">
      <g>
       <use xlink:href="#m6370c32a1c" x="90" y="43.78477" style="stroke: #000000; stroke-width: 0.6"/>
      </g>
     </g>
    </g>
    <g id="ytick_37">
     <g id="line2d_71">
      <g>
       <use xlink:href="#m6370c32a1c" x="90" y="39.412444" style="stroke: #000000; stroke-width: 0.6"/>
      </g>
     </g>
    </g>
    <g id="ytick_38">
     <g id="line2d_72">
      <g>
       <use xlink:href="#m6370c32a1c" x="90" y="36.31023" style="stroke: #000000; stroke-width: 0.6"/>
      </g>
     </g>
    </g>
    <g id="text_9">
     <!-- Encode time (s) -->
     <g transform="translate(53.420312 127.513969) rotate(-90) scale(0.1 -0.1)">
      <defs>
       <path id="DejaVuSans-45" d="M 628 4666 
L 3578 4666 
L 3578 4134 
L 1259 4134 
L 1259 2753 
L 3481 2753 
L 3481 2222 
L 1259 2222 
L 1259 531 
L 3634 531 
L 3634 0 
L 628 0 
L 628 4666 
z
" transform="scale(0.015625)"/>
       <path id="DejaVuSans-6e" d="M 3513 2113 
L 3513 0 
L 2938 0 
L 2938 2094 
Q 2938 2591 2744 2837 
Q 2550 3084 2163 3084 
Q 1697 3084 1428 2787 
Q 1159 2491 1159 1978 
L 1159 0 
L 581 0 
L 581 3500 
L 1159 3500 
L 1159 2956 
Q 1366 3272 1645 3428 
Q 1925 3584 2291 3584 
Q 2894 3584 3203 3211 
Q 3513 2838 3513 2113 
z
" transform="scale(0.015625)"/>
       <path id="DejaVuSans-63" d="M 3122 3366 
L 3122 2828 
Q 2878 2963 2633 3030 
Q 2388 3097 2138 3097 
Q 1578 3097 1268 2742 
Q 959 2388 959 1747 
Q 959 1106 1268 751 
Q 1578 397 2138 397 
Q 2388 397 2633 464 
Q 2878 531 3122 666 
L 3122 134 
Q 2881 22 2623 -34 
Q 2366 -91 2075 -91 
Q 1284 -91 818 406 
Q 353 903 353 1747 
Q 353 2603 823 3093 
Q 1294 3584 2113 3584 
Q 2378 3584 2631 3529 
Q 2884 3475 3122 3366 
z
" transform="scale(0.015625)"/>
       <path id="DejaVuSans-6f" d="M 1959 3097 
Q 1497 3097 1228 2736 
Q 959 2375 959 1747 
Q 959 1119 1226 758 
Q 1494 397 1959 397 
Q 2419 397 2687 759 
Q 2956 1122 2956 1747 
Q 2956 2369 2687 2733 
Q 2419 3097 1959 3097 
z
M 1959 3584 
Q 2709 3584 3137 3096 
Q 3566 2609 3566 1747 
Q 3566 888 3137 398 
Q 2709 -91 1959 -91 
Q 1206 -91 779 398 
Q 353 888 353 1747 
Q 353 2609 779 3096 
Q 1206 3584 1959 3584 
z
" transform="scale(0.015625)"/>
       <path id="DejaVuSans-64" d="M 2906 2969 
L 2906 4863 
L 3481 4863 
L 3481 0 
L 2906 0 
L 2906 525 
Q 2725 213 2448 61 
Q 2172 -91 1784 -91 
Q 1150 -91 751 415 
Q 353 922 353 1747 
Q 353 2572 751 3078 
Q 1150 3584 1784 3584 
Q 2172 3584 2448 3432 
Q 2725 3281 2906 2969 
z
M 947 1747 
Q 947 1113 1208 752 
Q 1469 391 1925 391 
Q 2381 391 2643 752 
Q 2906 1113 2906 1747 
Q 2906 2381 2643 2742 
Q 2381 3103 1925 3103 
Q 1469 3103 1208 2742 
Q 947 2381 947 1747 
z
" transform="scale(0.015625)"/>
       <path id="DejaVuSans-74" d="M 1172 4494 
L 1172 3500 
L 2356 3500 
L 2356 3053 
L 1172 3053 
L 1172 1153 
Q 1172 725 1289 603 
Q 1406 481 1766 481 
L 2356 481 
L 2356 0 
L 1766 0 
Q 1100 0 847 248 
Q 594 497 594 1153 
L 594 3053 
L 172 3053 
L 172 3500 
L 594 3500 
L 594 4494 
L 1172 4494 
z
" transform="scale(0.015625)"/>
       <path id="DejaVuSans-6d" d="M 3328 2828 
Q 3544 3216 3844 3400 
Q 4144 3584 4550 3584 
Q 5097 3584 5394 3201 
Q 5691 2819 5691 2113 
L 5691 0 
L 5113 0 
L 5113 2094 
Q 5113 2597 4934 2840 
Q 4756 3084 4391 3084 
Q 3944 3084 3684 2787 
Q 3425 2491 3425 1978 
L 3425 0 
L 2847 0 
L 2847 2094 
Q 2847 2600 2669 2842 
Q 2491 3084 2119 3084 
Q 1678 3084 1418 2786 
Q 1159 2488 1159 1978 
L 1159 0 
L 581 0 
L 581 3500 
L 1159 3500 
L 1159 2956 
Q 1356 3278 1631 3431 
Q 1906 3584 2284 3584 
Q 2666 3584 2933 3390 
Q 3200 3197 3328 2828 
z
" transform="scale(0.015625)"/>
      </defs>
      <use xlink:href="#DejaVuSans-45"/>
      <use xlink:href="#DejaVuSans-6e" x="63.183594"/>
      <use xlink:href="#DejaVuSans-63" x="126.5625"/>
      <use xlink:href="#DejaVuSans-6f" x="181.542969"/>
      <use xlink:href="#DejaVuSans-64" x="242.724609"/>
      <use xlink:href="#DejaVuSans-65" x="306.201172"/>
      <use xlink:href="#DejaVuSans-20" x="367.724609"/>
      <use xlink:href="#DejaVuSans-74" x="399.511719"/>
      <use xlink:href="#DejaVuSans-69" x="438.720703"/>
      <use xlink:href="#DejaVuSans-6d" x="466.503906"/>
      <use xlink:href="#DejaVuSans-65" x="563.916016"/>
      <use xlink:href="#DejaVuSans-20" x="625.439453"/>
      <use xlink:href="#DejaVuSans-28" x="657.226562"/>
      <use xlink:href="#DejaVuSans-73" x="696.240234"/>
      <use xlink:href="#DejaVuSans-29" x="748.339844"/>
     </g>
    </g>
   </g>
   <g id="line2d_73">
    <path d="M 115.363636 106.659348 
L 125.293172 105.725326 
L 135.224169 107.430297 
L 145.15264 105.931632 
L 155.077552 102.709942 
L 164.998156 101.678109 
L 174.916324 101.993468 
L 184.830331 99.440665 
L 194.741239 98.401448 
L 204.647421 97.336655 
L 214.54926 96.400042 
L 224.446666 94.717363 
L 234.339827 94.689496 
L 244.229245 92.59778 
L 254.114098 91.302688 
L 263.994106 89.742815 
L 273.869057 89.213078 
L 283.739435 87.523845 
L 293.60461 85.462854 
L 303.465292 84.593647 
L 313.32069 82.521422 
L 323.17107 82.763057 
L 333.016436 81.707892 
L 342.856771 79.708375 
L 352.692013 78.51981 
L 362.522702 76.65741 
L 381.088042 73.989963 
L 399.625657 71.608633 
L 418.209883 68.533337 
L 436.794108 66.473868 
L 455.378334 64.267228 
L 473.962559 60.638278 
L 492.546785 58.132643 
L 511.13101 56.756378 
L 529.715236 53.310402 
L 548.299462 51.082301 
L 566.883687 47.044977 
L 585.467913 45.071783 
L 604.052138 41.888546 
L 622.636364 40.609636 
" clip-path="url(#p695e67db9f)" style="fill: none; stroke: #1f77b4; stroke-width: 1.5; stroke-linecap: square"/>
   </g>
   <g id="line2d_74">
    <path d="M 115.363636 135.682364 
L 125.293172 134.514858 
L 135.224169 132.104461 
L 145.15264 135.091842 
L 155.077552 134.011711 
L 164.998156 131.195889 
L 174.916324 131.338086 
L 184.830331 124.687083 
L 194.741239 125.404978 
L 204.647421 125.890729 
L 214.54926 107.032931 
L 224.446666 104.611294 
L 234.339827 114.814613 
L 244.229245 115.132563 
L 254.114098 118.171064 
L 263.994106 115.39142 
L 273.869057 113.949597 
L 283.739435 114.380884 
L 293.60461 114.900677 
L 303.465292 110.084123 
L 313.32069 108.141771 
L 323.17107 110.824259 
L 333.016436 111.314076 
L 342.856771 105.257432 
L 352.692013 104.508231 
L 362.522702 104.219017 
L 381.088042 97.803179 
L 399.625657 94.578201 
L 418.209883 94.19719 
L 436.794108 93.111251 
L 455.378334 90.988281 
L 473.962559 88.097574 
L 492.546785 86.202501 
L 511.13101 83.138691 
L 529.715236 80.774309 
L 548.299462 74.902457 
L 566.883687 74.46685 
L 585.467913 72.045103 
L 604.052138 67.669677 
L 622.636364 66.84213 
" clip-path="url(#p695e67db9f)" style="fill: none; stroke: #ff7f0e; stroke-width: 1.5; stroke-linecap: square"/>
   </g>
   <g id="line2d_75">
    <path d="M 115.363636 113.80509 
L 125.293172 108.067429 
L 135.224169 110.999732 
L 145.15264 104.214877 
L 155.077552 107.540462 
L 164.998156 106.109234 
L 174.916324 101.79193 
L 184.830331 99.346217 
L 194.741239 104.242997 
L 204.647421 100.21431 
L 214.54926 98.50903 
L 224.446666 96.575893 
L 234.339827 96.510519 
L 244.229245 95.931558 
L 254.114098 93.04913 
L 263.994106 91.89046 
L 273.869057 91.049789 
L 283.739435 88.879201 
L 293.60461 88.049558 
L 303.465292 88.362291 
L 313.32069 87.198488 
L 323.17107 86.887146 
L 333.016436 86.079215 
L 342.856771 85.306842 
L 352.692013 83.39191 
L 362.522702 82.519036 
L 381.088042 80.156545 
L 399.625657 76.733326 
L 418.209883 74.275813 
L 436.794108 72.00053 
L 455.378334 63.912559 
L 473.962559 68.801632 
L 492.546785 61.005786 
L 511.13101 59.554585 
L 529.715236 61.009735 
L 548.299462 53.963598 
L 566.883687 49.343328 
L 585.467913 49.264956 
L 604.052138 47.831485 
L 622.636364 41.816572 
" clip-path="url(#p695e67db9f)" style="fill: none; stroke: #2ca02c; stroke-width: 1.5; stroke-linecap: square"/>
   </g>
   <g id="line2d_76">
    <path d="M 115.363636 126.014697 
L 125.293172 129.337058 
L 135.224169 130.385453 
L 145.15264 128.901407 
L 155.077552 127.146112 
L 164.998156 124.357417 
L 174.916324 119.886201 
L 184.830331 122.116537 
L 194.741239 120.629921 
L 204.647421 116.686519 
L 214.54926 114.291023 
L 224.446666 113.308503 
L 234.339827 113.393595 
L 244.229245 115.280759 
L 254.114098 109.787639 
L 263.994106 109.511874 
L 273.869057 108.611358 
L 283.739435 107.621281 
L 293.60461 110.203823 
L 303.465292 109.02577 
L 313.32069 104.634591 
L 323.17107 102.463757 
L 333.016436 104.002082 
L 342.856771 101.218742 
L 352.692013 99.844323 
L 362.522702 98.685151 
L 381.088042 97.475214 
L 399.625657 92.904708 
L 418.209883 91.83409 
L 436.794108 89.706862 
L 455.378334 85.873663 
L 473.962559 84.135202 
L 492.546785 81.180032 
L 511.13101 80.318283 
L 529.715236 75.934237 
L 548.299462 75.58911 
L 566.883687 72.001141 
L 585.467913 70.5037 
L 604.052138 67.019651 
L 622.636364 64.794996 
" clip-path="url(#p695e67db9f)" style="fill: none; stroke: #d62728; stroke-width: 1.5; stroke-linecap: square"/>
   </g>
   <g id="line2d_77">
    <path d="M 115.363636 107.106967 
L 125.293172 106.874196 
L 135.224169 106.550547 
L 145.15264 104.636631 
L 155.077552 104.62792 
L 164.998156 103.337044 
L 174.916324 101.159975 
L 184.830331 100.954527 
L 194.741239 99.64138 
L 204.647421 97.35024 
L 214.54926 96.998199 
L 224.446666 96.737047 
L 234.339827 93.7231 
L 244.229245 93.235127 
L 254.114098 89.875385 
L 263.994106 89.92343 
L 273.869057 89.513233 
L 283.739435 88.991161 
L 293.60461 87.982136 
L 303.465292 86.702371 
L 313.32069 85.549437 
L 323.17107 83.074695 
L 333.016436 81.311497 
L 342.856771 80.181626 
L 352.692013 79.88292 
L 362.522702 78.843181 
L 381.088042 76.729507 
L 399.625657 72.939803 
L 418.209883 70.996731 
L 436.794108 67.958513 
L 455.378334 66.765143 
L 473.962559 63.440656 
L 492.546785 61.268847 
L 511.13101 58.705215 
L 529.715236 57.049598 
L 548.299462 55.063552 
L 566.883687 52.174766 
L 585.467913 49.358626 
L 604.052138 47.178671 
L 622.636364 45.15802 
" clip-path="url(#p695e67db9f)" style="fill: none; stroke: #9467bd; stroke-width: 1.5; stroke-linecap: square"/>
   </g>
   <g id="patch_3">
    <path d="M 90 140.436 
L 90 35.856 
" style="fill: none; stroke: #000000; stroke-width: 0.8; stroke-linejoin: miter; stroke-linecap: square"/>
   </g>
   <g id="patch_4">
    <path d="M 648 140.436 
L 648 35.856 
" style="fill: none; stroke: #000000; stroke-width: 0.8; stroke-linejoin: miter; stroke-linecap: square"/>
   </g>
   <g id="patch_5">
    <path d="M 90 140.436 
L 648 140.436 
" style="fill: none; stroke: #000000; stroke-width: 0.8; stroke-linejoin: miter; stroke-linecap: square"/>
   </g>
   <g id="patch_6">
    <path d="M 90 35.856 
L 648 35.856 
" style="fill: none; stroke: #000000; stroke-width: 0.8; stroke-linejoin: miter; stroke-linecap: square"/>
   </g>
   <g id="legend_1">
    <g id="patch_7">
     <path d="M 228.236719 33.47185 
L 509.763281 33.47185 
Q 511.763281 33.47185 511.763281 31.47185 
L 511.763281 3.1156 
Q 511.763281 1.1156 509.763281 1.1156 
L 228.236719 1.1156 
Q 226.236719 1.1156 226.236719 3.1156 
L 226.236719 31.47185 
Q 226.236719 33.47185 228.236719 33.47185 
z
" style="fill: #ffffff; opacity: 0.8; stroke: #cccccc; stroke-linejoin: miter"/>
    </g>
    <g id="line2d_78">
     <path d="M 230.236719 9.214038 
L 240.236719 9.214038 
L 250.236719 9.214038 
" style="fill: none; stroke: #1f77b4; stroke-width: 1.5; stroke-linecap: square"/>
    </g>
    <g id="text_10">
     <!-- JSON -->
     <g transform="translate(258.236719 12.714038) scale(0.1 -0.1)">
      <use xlink:href="#DejaVuSans-4a"/>
      <use xlink:href="#DejaVuSans-53" x="29.492188"/>
      <use xlink:href="#DejaVuSans-4f" x="92.96875"/>
      <use xlink:href="#DejaVuSans-4e" x="171.679688"/>
     </g>
    </g>
    <g id="line2d_79">
     <path d="M 230.236719 23.892163 
L 240.236719 23.892163 
L 250.236719 23.892163 
" style="fill: none; stroke: #ff7f0e; stroke-width: 1.5; stroke-linecap: square"/>
    </g>
    <g id="text_11">
     <!-- scale -->
     <g transform="translate(258.236719 27.392163) scale(0.1 -0.1)">
      <defs>
       <path id="DejaVuSans-61" d="M 2194 1759 
Q 1497 1759 1228 1600 
Q 959 1441 959 1056 
Q 959 750 1161 570 
Q 1363 391 1709 391 
Q 2188 391 2477 730 
Q 2766 1069 2766 1631 
L 2766 1759 
L 2194 1759 
z
M 3341 1997 
L 3341 0 
L 2766 0 
L 2766 531 
Q 2569 213 2275 61 
Q 1981 -91 1556 -91 
Q 1019 -91 701 211 
Q 384 513 384 1019 
Q 384 1609 779 1909 
Q 1175 2209 1959 2209 
L 2766 2209 
L 2766 2266 
Q 2766 2663 2505 2880 
Q 2244 3097 1772 3097 
Q 1472 3097 1187 3025 
Q 903 2953 641 2809 
L 641 3341 
Q 956 3463 1253 3523 
Q 1550 3584 1831 3584 
Q 2591 3584 2966 3190 
Q 3341 2797 3341 1997 
z
" transform="scale(0.015625)"/>
       <path id="DejaVuSans-6c" d="M 603 4863 
L 1178 4863 
L 1178 0 
L 603 0 
L 603 4863 
z
" transform="scale(0.015625)"/>
      </defs>
      <use xlink:href="#DejaVuSans-73"/>
      <use xlink:href="#DejaVuSans-63" x="52.099609"/>
      <use xlink:href="#DejaVuSans-61" x="107.080078"/>
      <use xlink:href="#DejaVuSans-6c" x="168.359375"/>
      <use xlink:href="#DejaVuSans-65" x="196.142578"/>
     </g>
    </g>
    <g id="line2d_80">
     <path d="M 304.003906 9.214038 
L 314.003906 9.214038 
L 324.003906 9.214038 
" style="fill: none; stroke: #2ca02c; stroke-width: 1.5; stroke-linecap: square"/>
    </g>
    <g id="text_12">
     <!-- JSBIN -->
     <g transform="translate(332.003906 12.714038) scale(0.1 -0.1)">
      <defs>
       <path id="DejaVuSans-49" d="M 628 4666 
L 1259 4666 
L 1259 0 
L 628 0 
L 628 4666 
z
" transform="scale(0.015625)"/>
      </defs>
      <use xlink:href="#DejaVuSans-4a"/>
      <use xlink:href="#DejaVuSans-53" x="29.492188"/>
      <use xlink:href="#DejaVuSans-42" x="92.96875"/>
      <use xlink:href="#DejaVuSans-49" x="161.572266"/>
      <use xlink:href="#DejaVuSans-4e" x="191.064453"/>
     </g>
    </g>
    <g id="line2d_81">
     <path d="M 304.003906 23.892163 
L 314.003906 23.892163 
L 324.003906 23.892163 
" style="fill: none; stroke: #d62728; stroke-width: 1.5; stroke-linecap: square"/>
    </g>
    <g id="text_13">
     <!-- AVRO Avsc -->
     <g transform="translate(332.003906 27.392163) scale(0.1 -0.1)">
      <defs>
       <path id="DejaVuSans-41" d="M 2188 4044 
L 1331 1722 
L 3047 1722 
L 2188 4044 
z
M 1831 4666 
L 2547 4666 
L 4325 0 
L 3669 0 
L 3244 1197 
L 1141 1197 
L 716 0 
L 50 0 
L 1831 4666 
z
" transform="scale(0.015625)"/>
       <path id="DejaVuSans-56" d="M 1831 0 
L 50 4666 
L 709 4666 
L 2188 738 
L 3669 4666 
L 4325 4666 
L 2547 0 
L 1831 0 
z
" transform="scale(0.015625)"/>
       <path id="DejaVuSans-52" d="M 2841 2188 
Q 3044 2119 3236 1894 
Q 3428 1669 3622 1275 
L 4263 0 
L 3584 0 
L 2988 1197 
Q 2756 1666 2539 1819 
Q 2322 1972 1947 1972 
L 1259 1972 
L 1259 0 
L 628 0 
L 628 4666 
L 2053 4666 
Q 2853 4666 3247 4331 
Q 3641 3997 3641 3322 
Q 3641 2881 3436 2590 
Q 3231 2300 2841 2188 
z
M 1259 4147 
L 1259 2491 
L 2053 2491 
Q 2509 2491 2742 2702 
Q 2975 2913 2975 3322 
Q 2975 3731 2742 3939 
Q 2509 4147 2053 4147 
L 1259 4147 
z
" transform="scale(0.015625)"/>
       <path id="DejaVuSans-76" d="M 191 3500 
L 800 3500 
L 1894 563 
L 2988 3500 
L 3597 3500 
L 2284 0 
L 1503 0 
L 191 3500 
z
" transform="scale(0.015625)"/>
      </defs>
      <use xlink:href="#DejaVuSans-41"/>
      <use xlink:href="#DejaVuSans-56" x="62.033203"/>
      <use xlink:href="#DejaVuSans-52" x="130.441406"/>
      <use xlink:href="#DejaVuSans-4f" x="199.923828"/>
      <use xlink:href="#DejaVuSans-20" x="278.634766"/>
      <use xlink:href="#DejaVuSans-41" x="310.421875"/>
      <use xlink:href="#DejaVuSans-76" x="372.955078"/>
      <use xlink:href="#DejaVuSans-73" x="432.134766"/>
      <use xlink:href="#DejaVuSans-63" x="484.234375"/>
     </g>
    </g>
    <g id="line2d_82">
     <path d="M 405.925781 9.214038 
L 415.925781 9.214038 
L 425.925781 9.214038 
" style="fill: none; stroke: #9467bd; stroke-width: 1.5; stroke-linecap: square"/>
    </g>
    <g id="text_14">
     <!-- PROTOBUF Pbf -->
     <g transform="translate(433.925781 12.714038) scale(0.1 -0.1)">
      <defs>
       <path id="DejaVuSans-50" d="M 1259 4147 
L 1259 2394 
L 2053 2394 
Q 2494 2394 2734 2622 
Q 2975 2850 2975 3272 
Q 2975 3691 2734 3919 
Q 2494 4147 2053 4147 
L 1259 4147 
z
M 628 4666 
L 2053 4666 
Q 2838 4666 3239 4311 
Q 3641 3956 3641 3272 
Q 3641 2581 3239 2228 
Q 2838 1875 2053 1875 
L 1259 1875 
L 1259 0 
L 628 0 
L 628 4666 
z
" transform="scale(0.015625)"/>
       <path id="DejaVuSans-54" d="M -19 4666 
L 3928 4666 
L 3928 4134 
L 2272 4134 
L 2272 0 
L 1638 0 
L 1638 4134 
L -19 4134 
L -19 4666 
z
" transform="scale(0.015625)"/>
       <path id="DejaVuSans-55" d="M 556 4666 
L 1191 4666 
L 1191 1831 
Q 1191 1081 1462 751 
Q 1734 422 2344 422 
Q 2950 422 3222 751 
Q 3494 1081 3494 1831 
L 3494 4666 
L 4128 4666 
L 4128 1753 
Q 4128 841 3676 375 
Q 3225 -91 2344 -91 
Q 1459 -91 1007 375 
Q 556 841 556 1753 
L 556 4666 
z
" transform="scale(0.015625)"/>
       <path id="DejaVuSans-46" d="M 628 4666 
L 3309 4666 
L 3309 4134 
L 1259 4134 
L 1259 2759 
L 3109 2759 
L 3109 2228 
L 1259 2228 
L 1259 0 
L 628 0 
L 628 4666 
z
" transform="scale(0.015625)"/>
       <path id="DejaVuSans-62" d="M 3116 1747 
Q 3116 2381 2855 2742 
Q 2594 3103 2138 3103 
Q 1681 3103 1420 2742 
Q 1159 2381 1159 1747 
Q 1159 1113 1420 752 
Q 1681 391 2138 391 
Q 2594 391 2855 752 
Q 3116 1113 3116 1747 
z
M 1159 2969 
Q 1341 3281 1617 3432 
Q 1894 3584 2278 3584 
Q 2916 3584 3314 3078 
Q 3713 2572 3713 1747 
Q 3713 922 3314 415 
Q 2916 -91 2278 -91 
Q 1894 -91 1617 61 
Q 1341 213 1159 525 
L 1159 0 
L 581 0 
L 581 4863 
L 1159 4863 
L 1159 2969 
z
" transform="scale(0.015625)"/>
       <path id="DejaVuSans-66" d="M 2375 4863 
L 2375 4384 
L 1825 4384 
Q 1516 4384 1395 4259 
Q 1275 4134 1275 3809 
L 1275 3500 
L 2222 3500 
L 2222 3053 
L 1275 3053 
L 1275 0 
L 697 0 
L 697 3053 
L 147 3053 
L 147 3500 
L 697 3500 
L 697 3744 
Q 697 4328 969 4595 
Q 1241 4863 1831 4863 
L 2375 4863 
z
" transform="scale(0.015625)"/>
      </defs>
      <use xlink:href="#DejaVuSans-50"/>
      <use xlink:href="#DejaVuSans-52" x="60.302734"/>
      <use xlink:href="#DejaVuSans-4f" x="129.785156"/>
      <use xlink:href="#DejaVuSans-54" x="208.496094"/>
      <use xlink:href="#DejaVuSans-4f" x="269.580078"/>
      <use xlink:href="#DejaVuSans-42" x="348.291016"/>
      <use xlink:href="#DejaVuSans-55" x="416.894531"/>
      <use xlink:href="#DejaVuSans-46" x="490.087891"/>
      <use xlink:href="#DejaVuSans-20" x="547.607422"/>
      <use xlink:href="#DejaVuSans-50" x="579.394531"/>
      <use xlink:href="#DejaVuSans-62" x="639.697266"/>
      <use xlink:href="#DejaVuSans-66" x="703.173828"/>
     </g>
    </g>
   </g>
  </g>
  <g id="axes_2">
   <g id="patch_8">
    <path d="M 90 265.932 
L 648 265.932 
L 648 161.352 
L 90 161.352 
z
" style="fill: #ffffff"/>
   </g>
   <g id="matplotlib.axis_3">
    <g id="xtick_28">
     <g id="line2d_83">
      <path d="M 166.951075 265.932 
L 166.951075 161.352 
" clip-path="url(#p87ac062fec)" style="fill: none; stroke: #b0b0b0; stroke-width: 0.8; stroke-linecap: square"/>
     </g>
     <g id="line2d_84">
      <g>
       <use xlink:href="#m4b93ab3b64" x="166.951075" y="265.932" style="stroke: #000000; stroke-width: 0.8"/>
      </g>
     </g>
     <g id="text_15">
      <!-- $\mathdefault{10^{0}}$ -->
      <g transform="translate(158.151075 280.530438) scale(0.1 -0.1)">
       <use xlink:href="#DejaVuSans-31" transform="translate(0 0.765625)"/>
       <use xlink:href="#DejaVuSans-30" transform="translate(63.623047 0.765625)"/>
       <use xlink:href="#DejaVuSans-30" transform="translate(128.203125 39.046875) scale(0.7)"/>
      </g>
     </g>
    </g>
    <g id="xtick_29">
     <g id="line2d_85">
      <path d="M 358.718932 265.932 
L 358.718932 161.352 
" clip-path="url(#p87ac062fec)" style="fill: none; stroke: #b0b0b0; stroke-width: 0.8; stroke-linecap: square"/>
     </g>
     <g id="line2d_86">
      <g>
       <use xlink:href="#m4b93ab3b64" x="358.718932" y="265.932" style="stroke: #000000; stroke-width: 0.8"/>
      </g>
     </g>
     <g id="text_16">
      <!-- $\mathdefault{10^{1}}$ -->
      <g transform="translate(349.918932 280.530438) scale(0.1 -0.1)">
       <use xlink:href="#DejaVuSans-31" transform="translate(0 0.684375)"/>
       <use xlink:href="#DejaVuSans-30" transform="translate(63.623047 0.684375)"/>
       <use xlink:href="#DejaVuSans-31" transform="translate(128.203125 38.965625) scale(0.7)"/>
      </g>
     </g>
    </g>
    <g id="xtick_30">
     <g id="line2d_87">
      <path d="M 550.486789 265.932 
L 550.486789 161.352 
" clip-path="url(#p87ac062fec)" style="fill: none; stroke: #b0b0b0; stroke-width: 0.8; stroke-linecap: square"/>
     </g>
     <g id="line2d_88">
      <g>
       <use xlink:href="#m4b93ab3b64" x="550.486789" y="265.932" style="stroke: #000000; stroke-width: 0.8"/>
      </g>
     </g>
     <g id="text_17">
      <!-- $\mathdefault{10^{2}}$ -->
      <g transform="translate(541.686789 280.530438) scale(0.1 -0.1)">
       <use xlink:href="#DejaVuSans-31" transform="translate(0 0.765625)"/>
       <use xlink:href="#DejaVuSans-30" transform="translate(63.623047 0.765625)"/>
       <use xlink:href="#DejaVuSans-32" transform="translate(128.203125 39.046875) scale(0.7)"/>
      </g>
     </g>
    </g>
    <g id="xtick_31">
     <g id="line2d_89">
      <g>
       <use xlink:href="#m41809ce5e6" x="90.638972" y="265.932" style="stroke: #000000; stroke-width: 0.6"/>
      </g>
     </g>
    </g>
    <g id="xtick_32">
     <g id="line2d_90">
      <g>
       <use xlink:href="#m41809ce5e6" x="109.223198" y="265.932" style="stroke: #000000; stroke-width: 0.6"/>
      </g>
     </g>
    </g>
    <g id="xtick_33">
     <g id="line2d_91">
      <g>
       <use xlink:href="#m41809ce5e6" x="124.407616" y="265.932" style="stroke: #000000; stroke-width: 0.6"/>
      </g>
     </g>
    </g>
    <g id="xtick_34">
     <g id="line2d_92">
      <g>
       <use xlink:href="#m41809ce5e6" x="137.245858" y="265.932" style="stroke: #000000; stroke-width: 0.6"/>
      </g>
     </g>
    </g>
    <g id="xtick_35">
     <g id="line2d_93">
      <g>
       <use xlink:href="#m41809ce5e6" x="148.36685" y="265.932" style="stroke: #000000; stroke-width: 0.6"/>
      </g>
     </g>
    </g>
    <g id="xtick_36">
     <g id="line2d_94">
      <g>
       <use xlink:href="#m41809ce5e6" x="158.176259" y="265.932" style="stroke: #000000; stroke-width: 0.6"/>
      </g>
     </g>
    </g>
    <g id="xtick_37">
     <g id="line2d_95">
      <g>
       <use xlink:href="#m41809ce5e6" x="224.678952" y="265.932" style="stroke: #000000; stroke-width: 0.6"/>
      </g>
     </g>
    </g>
    <g id="xtick_38">
     <g id="line2d_96">
      <g>
       <use xlink:href="#m41809ce5e6" x="258.447596" y="265.932" style="stroke: #000000; stroke-width: 0.6"/>
      </g>
     </g>
    </g>
    <g id="xtick_39">
     <g id="line2d_97">
      <g>
       <use xlink:href="#m41809ce5e6" x="282.406829" y="265.932" style="stroke: #000000; stroke-width: 0.6"/>
      </g>
     </g>
    </g>
    <g id="xtick_40">
     <g id="line2d_98">
      <g>
       <use xlink:href="#m41809ce5e6" x="300.991055" y="265.932" style="stroke: #000000; stroke-width: 0.6"/>
      </g>
     </g>
    </g>
    <g id="xtick_41">
     <g id="line2d_99">
      <g>
       <use xlink:href="#m41809ce5e6" x="316.175473" y="265.932" style="stroke: #000000; stroke-width: 0.6"/>
      </g>
     </g>
    </g>
    <g id="xtick_42">
     <g id="line2d_100">
      <g>
       <use xlink:href="#m41809ce5e6" x="329.013715" y="265.932" style="stroke: #000000; stroke-width: 0.6"/>
      </g>
     </g>
    </g>
    <g id="xtick_43">
     <g id="line2d_101">
      <g>
       <use xlink:href="#m41809ce5e6" x="340.134707" y="265.932" style="stroke: #000000; stroke-width: 0.6"/>
      </g>
     </g>
    </g>
    <g id="xtick_44">
     <g id="line2d_102">
      <g>
       <use xlink:href="#m41809ce5e6" x="349.944116" y="265.932" style="stroke: #000000; stroke-width: 0.6"/>
      </g>
     </g>
    </g>
    <g id="xtick_45">
     <g id="line2d_103">
      <g>
       <use xlink:href="#m41809ce5e6" x="416.446809" y="265.932" style="stroke: #000000; stroke-width: 0.6"/>
      </g>
     </g>
    </g>
    <g id="xtick_46">
     <g id="line2d_104">
      <g>
       <use xlink:href="#m41809ce5e6" x="450.215453" y="265.932" style="stroke: #000000; stroke-width: 0.6"/>
      </g>
     </g>
    </g>
    <g id="xtick_47">
     <g id="line2d_105">
      <g>
       <use xlink:href="#m41809ce5e6" x="474.174687" y="265.932" style="stroke: #000000; stroke-width: 0.6"/>
      </g>
     </g>
    </g>
    <g id="xtick_48">
     <g id="line2d_106">
      <g>
       <use xlink:href="#m41809ce5e6" x="492.758912" y="265.932" style="stroke: #000000; stroke-width: 0.6"/>
      </g>
     </g>
    </g>
    <g id="xtick_49">
     <g id="line2d_107">
      <g>
       <use xlink:href="#m41809ce5e6" x="507.94333" y="265.932" style="stroke: #000000; stroke-width: 0.6"/>
      </g>
     </g>
    </g>
    <g id="xtick_50">
     <g id="line2d_108">
      <g>
       <use xlink:href="#m41809ce5e6" x="520.781572" y="265.932" style="stroke: #000000; stroke-width: 0.6"/>
      </g>
     </g>
    </g>
    <g id="xtick_51">
     <g id="line2d_109">
      <g>
       <use xlink:href="#m41809ce5e6" x="531.902564" y="265.932" style="stroke: #000000; stroke-width: 0.6"/>
      </g>
     </g>
    </g>
    <g id="xtick_52">
     <g id="line2d_110">
      <g>
       <use xlink:href="#m41809ce5e6" x="541.711973" y="265.932" style="stroke: #000000; stroke-width: 0.6"/>
      </g>
     </g>
    </g>
    <g id="xtick_53">
     <g id="line2d_111">
      <g>
       <use xlink:href="#m41809ce5e6" x="608.214667" y="265.932" style="stroke: #000000; stroke-width: 0.6"/>
      </g>
     </g>
    </g>
    <g id="xtick_54">
     <g id="line2d_112">
      <g>
       <use xlink:href="#m41809ce5e6" x="641.98331" y="265.932" style="stroke: #000000; stroke-width: 0.6"/>
      </g>
     </g>
    </g>
    <g id="text_18">
     <!-- JSON size (MB) -->
     <g transform="translate(332.155469 294.208563) scale(0.1 -0.1)">
      <use xlink:href="#DejaVuSans-4a"/>
      <use xlink:href="#DejaVuSans-53" x="29.492188"/>
      <use xlink:href="#DejaVuSans-4f" x="92.96875"/>
      <use xlink:href="#DejaVuSans-4e" x="171.679688"/>
      <use xlink:href="#DejaVuSans-20" x="246.484375"/>
      <use xlink:href="#DejaVuSans-73" x="278.271484"/>
      <use xlink:href="#DejaVuSans-69" x="330.371094"/>
      <use xlink:href="#DejaVuSans-7a" x="358.154297"/>
      <use xlink:href="#DejaVuSans-65" x="410.644531"/>
      <use xlink:href="#DejaVuSans-20" x="472.167969"/>
      <use xlink:href="#DejaVuSans-28" x="503.955078"/>
      <use xlink:href="#DejaVuSans-4d" x="542.96875"/>
      <use xlink:href="#DejaVuSans-42" x="629.248047"/>
      <use xlink:href="#DejaVuSans-29" x="697.851562"/>
     </g>
    </g>
   </g>
   <g id="matplotlib.axis_4">
    <g id="ytick_39">
     <g id="line2d_113">
      <path d="M 90 249.914479 
L 648 249.914479 
" clip-path="url(#p87ac062fec)" style="fill: none; stroke: #b0b0b0; stroke-width: 0.8; stroke-linecap: square"/>
     </g>
     <g id="line2d_114">
      <g>
       <use xlink:href="#mdd139832e3" x="90" y="249.914479" style="stroke: #000000; stroke-width: 0.8"/>
      </g>
     </g>
     <g id="text_19">
      <!-- $\mathdefault{10^{-3}}$ -->
      <g transform="translate(59.5 253.713697) scale(0.1 -0.1)">
       <use xlink:href="#DejaVuSans-31" transform="translate(0 0.765625)"/>
       <use xlink:href="#DejaVuSans-30" transform="translate(63.623047 0.765625)"/>
       <use xlink:href="#DejaVuSans-2212" transform="translate(128.203125 39.046875) scale(0.7)"/>
       <use xlink:href="#DejaVuSans-33" transform="translate(186.855469 39.046875) scale(0.7)"/>
      </g>
     </g>
    </g>
    <g id="ytick_40">
     <g id="line2d_115">
      <path d="M 90 226.65696 
L 648 226.65696 
" clip-path="url(#p87ac062fec)" style="fill: none; stroke: #b0b0b0; stroke-width: 0.8; stroke-linecap: square"/>
     </g>
     <g id="line2d_116">
      <g>
       <use xlink:href="#mdd139832e3" x="90" y="226.65696" style="stroke: #000000; stroke-width: 0.8"/>
      </g>
     </g>
     <g id="text_20">
      <!-- $\mathdefault{10^{-2}}$ -->
      <g transform="translate(59.5 230.456179) scale(0.1 -0.1)">
       <use xlink:href="#DejaVuSans-31" transform="translate(0 0.765625)"/>
       <use xlink:href="#DejaVuSans-30" transform="translate(63.623047 0.765625)"/>
       <use xlink:href="#DejaVuSans-2212" transform="translate(128.203125 39.046875) scale(0.7)"/>
       <use xlink:href="#DejaVuSans-32" transform="translate(186.855469 39.046875) scale(0.7)"/>
      </g>
     </g>
    </g>
    <g id="ytick_41">
     <g id="line2d_117">
      <path d="M 90 203.399442 
L 648 203.399442 
" clip-path="url(#p87ac062fec)" style="fill: none; stroke: #b0b0b0; stroke-width: 0.8; stroke-linecap: square"/>
     </g>
     <g id="line2d_118">
      <g>
       <use xlink:href="#mdd139832e3" x="90" y="203.399442" style="stroke: #000000; stroke-width: 0.8"/>
      </g>
     </g>
     <g id="text_21">
      <!-- $\mathdefault{10^{-1}}$ -->
      <g transform="translate(59.5 207.198661) scale(0.1 -0.1)">
       <use xlink:href="#DejaVuSans-31" transform="translate(0 0.684375)"/>
       <use xlink:href="#DejaVuSans-30" transform="translate(63.623047 0.684375)"/>
       <use xlink:href="#DejaVuSans-2212" transform="translate(128.203125 38.965625) scale(0.7)"/>
       <use xlink:href="#DejaVuSans-31" transform="translate(186.855469 38.965625) scale(0.7)"/>
      </g>
     </g>
    </g>
    <g id="ytick_42">
     <g id="line2d_119">
      <path d="M 90 180.141924 
L 648 180.141924 
" clip-path="url(#p87ac062fec)" style="fill: none; stroke: #b0b0b0; stroke-width: 0.8; stroke-linecap: square"/>
     </g>
     <g id="line2d_120">
      <g>
       <use xlink:href="#mdd139832e3" x="90" y="180.141924" style="stroke: #000000; stroke-width: 0.8"/>
      </g>
     </g>
     <g id="text_22">
      <!-- $\mathdefault{10^{0}}$ -->
      <g transform="translate(65.4 183.941142) scale(0.1 -0.1)">
       <use xlink:href="#DejaVuSans-31" transform="translate(0 0.765625)"/>
       <use xlink:href="#DejaVuSans-30" transform="translate(63.623047 0.765625)"/>
       <use xlink:href="#DejaVuSans-30" transform="translate(128.203125 39.046875) scale(0.7)"/>
      </g>
     </g>
    </g>
    <g id="ytick_43">
     <g id="line2d_121">
      <g>
       <use xlink:href="#m6370c32a1c" x="90" y="262.075341" style="stroke: #000000; stroke-width: 0.6"/>
      </g>
     </g>
    </g>
    <g id="ytick_44">
     <g id="line2d_122">
      <g>
       <use xlink:href="#m6370c32a1c" x="90" y="259.169576" style="stroke: #000000; stroke-width: 0.6"/>
      </g>
     </g>
    </g>
    <g id="ytick_45">
     <g id="line2d_123">
      <g>
       <use xlink:href="#m6370c32a1c" x="90" y="256.915689" style="stroke: #000000; stroke-width: 0.6"/>
      </g>
     </g>
    </g>
    <g id="ytick_46">
     <g id="line2d_124">
      <g>
       <use xlink:href="#m6370c32a1c" x="90" y="255.07413" style="stroke: #000000; stroke-width: 0.6"/>
      </g>
     </g>
    </g>
    <g id="ytick_47">
     <g id="line2d_125">
      <g>
       <use xlink:href="#m6370c32a1c" x="90" y="253.517114" style="stroke: #000000; stroke-width: 0.6"/>
      </g>
     </g>
    </g>
    <g id="ytick_48">
     <g id="line2d_126">
      <g>
       <use xlink:href="#m6370c32a1c" x="90" y="252.168365" style="stroke: #000000; stroke-width: 0.6"/>
      </g>
     </g>
    </g>
    <g id="ytick_49">
     <g id="line2d_127">
      <g>
       <use xlink:href="#m6370c32a1c" x="90" y="250.978684" style="stroke: #000000; stroke-width: 0.6"/>
      </g>
     </g>
    </g>
    <g id="ytick_50">
     <g id="line2d_128">
      <g>
       <use xlink:href="#m6370c32a1c" x="90" y="242.913268" style="stroke: #000000; stroke-width: 0.6"/>
      </g>
     </g>
    </g>
    <g id="ytick_51">
     <g id="line2d_129">
      <g>
       <use xlink:href="#m6370c32a1c" x="90" y="238.817822" style="stroke: #000000; stroke-width: 0.6"/>
      </g>
     </g>
    </g>
    <g id="ytick_52">
     <g id="line2d_130">
      <g>
       <use xlink:href="#m6370c32a1c" x="90" y="235.912057" style="stroke: #000000; stroke-width: 0.6"/>
      </g>
     </g>
    </g>
    <g id="ytick_53">
     <g id="line2d_131">
      <g>
       <use xlink:href="#m6370c32a1c" x="90" y="233.658171" style="stroke: #000000; stroke-width: 0.6"/>
      </g>
     </g>
    </g>
    <g id="ytick_54">
     <g id="line2d_132">
      <g>
       <use xlink:href="#m6370c32a1c" x="90" y="231.816612" style="stroke: #000000; stroke-width: 0.6"/>
      </g>
     </g>
    </g>
    <g id="ytick_55">
     <g id="line2d_133">
      <g>
       <use xlink:href="#m6370c32a1c" x="90" y="230.259595" style="stroke: #000000; stroke-width: 0.6"/>
      </g>
     </g>
    </g>
    <g id="ytick_56">
     <g id="line2d_134">
      <g>
       <use xlink:href="#m6370c32a1c" x="90" y="228.910847" style="stroke: #000000; stroke-width: 0.6"/>
      </g>
     </g>
    </g>
    <g id="ytick_57">
     <g id="line2d_135">
      <g>
       <use xlink:href="#m6370c32a1c" x="90" y="227.721166" style="stroke: #000000; stroke-width: 0.6"/>
      </g>
     </g>
    </g>
    <g id="ytick_58">
     <g id="line2d_136">
      <g>
       <use xlink:href="#m6370c32a1c" x="90" y="219.65575" style="stroke: #000000; stroke-width: 0.6"/>
      </g>
     </g>
    </g>
    <g id="ytick_59">
     <g id="line2d_137">
      <g>
       <use xlink:href="#m6370c32a1c" x="90" y="215.560304" style="stroke: #000000; stroke-width: 0.6"/>
      </g>
     </g>
    </g>
    <g id="ytick_60">
     <g id="line2d_138">
      <g>
       <use xlink:href="#m6370c32a1c" x="90" y="212.654539" style="stroke: #000000; stroke-width: 0.6"/>
      </g>
     </g>
    </g>
    <g id="ytick_61">
     <g id="line2d_139">
      <g>
       <use xlink:href="#m6370c32a1c" x="90" y="210.400653" style="stroke: #000000; stroke-width: 0.6"/>
      </g>
     </g>
    </g>
    <g id="ytick_62">
     <g id="line2d_140">
      <g>
       <use xlink:href="#m6370c32a1c" x="90" y="208.559093" style="stroke: #000000; stroke-width: 0.6"/>
      </g>
     </g>
    </g>
    <g id="ytick_63">
     <g id="line2d_141">
      <g>
       <use xlink:href="#m6370c32a1c" x="90" y="207.002077" style="stroke: #000000; stroke-width: 0.6"/>
      </g>
     </g>
    </g>
    <g id="ytick_64">
     <g id="line2d_142">
      <g>
       <use xlink:href="#m6370c32a1c" x="90" y="205.653328" style="stroke: #000000; stroke-width: 0.6"/>
      </g>
     </g>
    </g>
    <g id="ytick_65">
     <g id="line2d_143">
      <g>
       <use xlink:href="#m6370c32a1c" x="90" y="204.463648" style="stroke: #000000; stroke-width: 0.6"/>
      </g>
     </g>
    </g>
    <g id="ytick_66">
     <g id="line2d_144">
      <g>
       <use xlink:href="#m6370c32a1c" x="90" y="196.398231" style="stroke: #000000; stroke-width: 0.6"/>
      </g>
     </g>
    </g>
    <g id="ytick_67">
     <g id="line2d_145">
      <g>
       <use xlink:href="#m6370c32a1c" x="90" y="192.302786" style="stroke: #000000; stroke-width: 0.6"/>
      </g>
     </g>
    </g>
    <g id="ytick_68">
     <g id="line2d_146">
      <g>
       <use xlink:href="#m6370c32a1c" x="90" y="189.397021" style="stroke: #000000; stroke-width: 0.6"/>
      </g>
     </g>
    </g>
    <g id="ytick_69">
     <g id="line2d_147">
      <g>
       <use xlink:href="#m6370c32a1c" x="90" y="187.143134" style="stroke: #000000; stroke-width: 0.6"/>
      </g>
     </g>
    </g>
    <g id="ytick_70">
     <g id="line2d_148">
      <g>
       <use xlink:href="#m6370c32a1c" x="90" y="185.301575" style="stroke: #000000; stroke-width: 0.6"/>
      </g>
     </g>
    </g>
    <g id="ytick_71">
     <g id="line2d_149">
      <g>
       <use xlink:href="#m6370c32a1c" x="90" y="183.744559" style="stroke: #000000; stroke-width: 0.6"/>
      </g>
     </g>
    </g>
    <g id="ytick_72">
     <g id="line2d_150">
      <g>
       <use xlink:href="#m6370c32a1c" x="90" y="182.39581" style="stroke: #000000; stroke-width: 0.6"/>
      </g>
     </g>
    </g>
    <g id="ytick_73">
     <g id="line2d_151">
      <g>
       <use xlink:href="#m6370c32a1c" x="90" y="181.206129" style="stroke: #000000; stroke-width: 0.6"/>
      </g>
     </g>
    </g>
    <g id="ytick_74">
     <g id="line2d_152">
      <g>
       <use xlink:href="#m6370c32a1c" x="90" y="173.140713" style="stroke: #000000; stroke-width: 0.6"/>
      </g>
     </g>
    </g>
    <g id="ytick_75">
     <g id="line2d_153">
      <g>
       <use xlink:href="#m6370c32a1c" x="90" y="169.045267" style="stroke: #000000; stroke-width: 0.6"/>
      </g>
     </g>
    </g>
    <g id="ytick_76">
     <g id="line2d_154">
      <g>
       <use xlink:href="#m6370c32a1c" x="90" y="166.139502" style="stroke: #000000; stroke-width: 0.6"/>
      </g>
     </g>
    </g>
    <g id="ytick_77">
     <g id="line2d_155">
      <g>
       <use xlink:href="#m6370c32a1c" x="90" y="163.885616" style="stroke: #000000; stroke-width: 0.6"/>
      </g>
     </g>
    </g>
    <g id="ytick_78">
     <g id="line2d_156">
      <g>
       <use xlink:href="#m6370c32a1c" x="90" y="162.044057" style="stroke: #000000; stroke-width: 0.6"/>
      </g>
     </g>
    </g>
    <g id="text_23">
     <!-- Decode time (s) -->
     <g transform="translate(53.420312 253.608406) rotate(-90) scale(0.1 -0.1)">
      <defs>
       <path id="DejaVuSans-44" d="M 1259 4147 
L 1259 519 
L 2022 519 
Q 2988 519 3436 956 
Q 3884 1394 3884 2338 
Q 3884 3275 3436 3711 
Q 2988 4147 2022 4147 
L 1259 4147 
z
M 628 4666 
L 1925 4666 
Q 3281 4666 3915 4102 
Q 4550 3538 4550 2338 
Q 4550 1131 3912 565 
Q 3275 0 1925 0 
L 628 0 
L 628 4666 
z
" transform="scale(0.015625)"/>
      </defs>
      <use xlink:href="#DejaVuSans-44"/>
      <use xlink:href="#DejaVuSans-65" x="77.001953"/>
      <use xlink:href="#DejaVuSans-63" x="138.525391"/>
      <use xlink:href="#DejaVuSans-6f" x="193.505859"/>
      <use xlink:href="#DejaVuSans-64" x="254.6875"/>
      <use xlink:href="#DejaVuSans-65" x="318.164062"/>
      <use xlink:href="#DejaVuSans-20" x="379.6875"/>
      <use xlink:href="#DejaVuSans-74" x="411.474609"/>
      <use xlink:href="#DejaVuSans-69" x="450.683594"/>
      <use xlink:href="#DejaVuSans-6d" x="478.466797"/>
      <use xlink:href="#DejaVuSans-65" x="575.878906"/>
      <use xlink:href="#DejaVuSans-20" x="637.402344"/>
      <use xlink:href="#DejaVuSans-28" x="669.189453"/>
      <use xlink:href="#DejaVuSans-73" x="708.203125"/>
      <use xlink:href="#DejaVuSans-29" x="760.302734"/>
     </g>
    </g>
   </g>
   <g id="line2d_157">
    <path d="M 115.363636 234.180891 
L 125.293172 231.399203 
L 135.224169 230.962818 
L 145.15264 229.505507 
L 155.077552 228.933397 
L 164.998156 226.664504 
L 174.916324 228.073476 
L 184.830331 226.921886 
L 194.741239 225.356897 
L 204.647421 223.450262 
L 214.54926 223.179241 
L 224.446666 222.079933 
L 234.339827 220.165933 
L 244.229245 219.083901 
L 254.114098 217.88627 
L 263.994106 215.983721 
L 273.869057 215.492043 
L 283.739435 213.462886 
L 293.60461 211.374723 
L 303.465292 211.812676 
L 313.32069 211.156632 
L 323.17107 208.179055 
L 333.016436 207.816444 
L 342.856771 206.779558 
L 352.692013 205.182749 
L 362.522702 203.430947 
L 381.088042 198.43863 
L 399.625657 198.561424 
L 418.209883 194.983775 
L 436.794108 194.058412 
L 455.378334 190.499758 
L 473.962559 188.158323 
L 492.546785 185.31697 
L 511.13101 180.194784 
L 529.715236 180.871137 
L 548.299462 178.557724 
L 566.883687 176.211131 
L 585.467913 174.026903 
L 604.052138 171.808847 
L 622.636364 166.105636 
" clip-path="url(#p87ac062fec)" style="fill: none; stroke: #1f77b4; stroke-width: 1.5; stroke-linecap: square"/>
   </g>
   <g id="line2d_158">
    <path d="M 115.363636 261.178364 
L 125.293172 259.250476 
L 135.224169 258.237485 
L 145.15264 249.109368 
L 155.077552 234.109839 
L 164.998156 237.51401 
L 174.916324 249.418696 
L 184.830331 253.555439 
L 194.741239 246.794824 
L 204.647421 245.588258 
L 214.54926 248.533066 
L 224.446666 243.423741 
L 234.339827 242.5552 
L 244.229245 245.969489 
L 254.114098 240.511621 
L 263.994106 240.959839 
L 273.869057 230.69646 
L 283.739435 242.961502 
L 293.60461 236.847807 
L 303.465292 236.022051 
L 313.32069 231.146529 
L 323.17107 236.097551 
L 333.016436 235.182568 
L 342.856771 225.414994 
L 352.692013 231.804486 
L 362.522702 219.412606 
L 381.088042 217.327274 
L 399.625657 212.974716 
L 418.209883 211.152742 
L 436.794108 206.464072 
L 455.378334 203.954532 
L 473.962559 193.036871 
L 492.546785 199.564722 
L 511.13101 188.139859 
L 529.715236 195.654314 
L 548.299462 185.557976 
L 566.883687 182.277945 
L 585.467913 181.748868 
L 604.052138 179.970424 
L 622.636364 177.624954 
" clip-path="url(#p87ac062fec)" style="fill: none; stroke: #ff7f0e; stroke-width: 1.5; stroke-linecap: square"/>
   </g>
   <g id="line2d_159">
    <path d="M 115.363636 252.548522 
L 125.293172 258.46035 
L 135.224169 250.373503 
L 145.15264 248.980072 
L 155.077552 239.629373 
L 164.998156 238.815099 
L 174.916324 244.855191 
L 184.830331 247.910924 
L 194.741239 246.663874 
L 204.647421 241.59543 
L 214.54926 242.627428 
L 224.446666 242.136279 
L 234.339827 239.983055 
L 244.229245 237.667018 
L 254.114098 237.035079 
L 263.994106 236.521382 
L 273.869057 235.572776 
L 283.739435 239.048309 
L 293.60461 231.873446 
L 303.465292 235.004064 
L 313.32069 228.18096 
L 323.17107 231.136577 
L 333.016436 226.705401 
L 342.856771 226.908566 
L 352.692013 224.853971 
L 362.522702 217.615849 
L 381.088042 216.261839 
L 399.625657 215.310058 
L 418.209883 209.27772 
L 436.794108 208.453101 
L 455.378334 200.841307 
L 473.962559 202.266421 
L 492.546785 200.77544 
L 511.13101 188.274557 
L 529.715236 195.539966 
L 548.299462 193.817401 
L 566.883687 181.400731 
L 585.467913 178.846287 
L 604.052138 176.437157 
L 622.636364 174.26267 
" clip-path="url(#p87ac062fec)" style="fill: none; stroke: #2ca02c; stroke-width: 1.5; stroke-linecap: square"/>
   </g>
   <g id="line2d_160">
    <path d="M 115.363636 259.645654 
L 125.293172 260.964286 
L 135.224169 260.410965 
L 145.15264 252.576169 
L 155.077552 232.827692 
L 164.998156 238.234233 
L 174.916324 253.007867 
L 184.830331 250.023015 
L 194.741239 249.661659 
L 204.647421 245.772838 
L 214.54926 248.429558 
L 224.446666 248.126163 
L 234.339827 231.184169 
L 244.229245 242.3978 
L 254.114098 238.770457 
L 263.994106 242.436448 
L 273.869057 229.990742 
L 283.739435 228.990005 
L 293.60461 238.172262 
L 303.465292 234.351316 
L 313.32069 227.292735 
L 323.17107 229.004148 
L 333.016436 235.776993 
L 342.856771 225.001874 
L 352.692013 227.510225 
L 362.522702 219.567409 
L 381.088042 212.76778 
L 399.625657 210.64274 
L 418.209883 210.966316 
L 436.794108 209.434568 
L 455.378334 205.423818 
L 473.962559 202.696914 
L 492.546785 200.780699 
L 511.13101 198.308022 
L 529.715236 192.169702 
L 548.299462 194.117931 
L 566.883687 183.463122 
L 585.467913 188.613791 
L 604.052138 180.28861 
L 622.636364 177.811714 
" clip-path="url(#p87ac062fec)" style="fill: none; stroke: #d62728; stroke-width: 1.5; stroke-linecap: square"/>
   </g>
   <g id="line2d_161">
    <path d="M 115.363636 235.958518 
L 125.293172 234.033916 
L 135.224169 233.313784 
L 145.15264 233.124226 
L 155.077552 230.675881 
L 164.998156 229.611406 
L 174.916324 229.080372 
L 184.830331 228.361786 
L 194.741239 227.399489 
L 204.647421 225.611194 
L 214.54926 225.00436 
L 224.446666 224.126196 
L 234.339827 222.508705 
L 244.229245 221.623506 
L 254.114098 212.98377 
L 263.994106 218.282919 
L 273.869057 214.487828 
L 283.739435 214.967289 
L 293.60461 215.987108 
L 303.465292 215.023465 
L 313.32069 212.805191 
L 323.17107 211.685537 
L 333.016436 210.197814 
L 342.856771 209.913492 
L 352.692013 208.618206 
L 362.522702 206.786313 
L 381.088042 203.448224 
L 399.625657 199.253111 
L 418.209883 197.751346 
L 436.794108 191.288922 
L 455.378334 193.978966 
L 473.962559 189.021364 
L 492.546785 187.94197 
L 511.13101 186.225647 
L 529.715236 182.358031 
L 548.299462 181.062379 
L 566.883687 178.863236 
L 585.467913 176.915765 
L 604.052138 175.29345 
L 622.636364 173.104343 
" clip-path="url(#p87ac062fec)" style="fill: none; stroke: #9467bd; stroke-width: 1.5; stroke-linecap: square"/>
   </g>
   <g id="patch_9">
    <path d="M 90 265.932 
L 90 161.352 
" style="fill: none; stroke: #000000; stroke-width: 0.8; stroke-linejoin: miter; stroke-linecap: square"/>
   </g>
   <g id="patch_10">
    <path d="M 648 265.932 
L 648 161.352 
" style="fill: none; stroke: #000000; stroke-width: 0.8; stroke-linejoin: miter; stroke-linecap: square"/>
   </g>
   <g id="patch_11">
    <path d="M 90 265.932 
L 648 265.932 
" style="fill: none; stroke: #000000; stroke-width: 0.8; stroke-linejoin: miter; stroke-linecap: square"/>
   </g>
   <g id="patch_12">
    <path d="M 90 161.352 
L 648 161.352 
" style="fill: none; stroke: #000000; stroke-width: 0.8; stroke-linejoin: miter; stroke-linecap: square"/>
   </g>
  </g>
 </g>
 <defs>
  <clipPath id="p695e67db9f">
   <rect x="90" y="35.856" width="558" height="104.58"/>
  </clipPath>
  <clipPath id="p87ac062fec">
   <rect x="90" y="161.352" width="558" height="104.58"/>
  </clipPath>
 </defs>
</svg>
